<svg width="56" height="51" viewBox="0 0 56 51" fill="none" xmlns="http://www.w3.org/2000/svg">
  <path
    d="M6.05269 41.5783H20.6353L20.0062 46.1446H16.8157C15.7433 46.1446 14.8349 47.0869 14.8349 48.2536C14.8349 49.4193 15.7433 50.387 16.8147 50.387H38.8517C39.9232 50.387 40.8316 49.4193 40.8316 48.2536C40.8279 47.6955 40.6182 47.1613 40.2477 46.7666C39.8772 46.3719 39.3757 46.1485 38.8517 46.1446H35.6613L35.0311 41.5783H49.6138C53.5974 41.5783 55.6001 39.5434 55.6001 35.2015V6.76375C55.6001 2.42186 53.5974 0.386963 49.6138 0.386963H6.05269C2.0691 0.386963 0.600098 2.42186 0.600098 6.76375V35.2015C0.600098 39.5434 2.0691 41.5783 6.05269 41.5783ZM4.81825 35.9542C4.11953 35.9542 3.81639 35.6557 3.81639 34.887V6.83786C3.81639 5.07506 4.53896 4.38158 6.12226 4.38158H49.5442C51.1514 4.38158 51.8501 5.07506 51.8501 6.83786V34.886C51.8501 35.6546 51.5469 35.9532 50.8482 35.9532L4.81825 35.9542ZM27.8332 42.2982C26.6684 42.2982 25.6665 41.2553 25.6665 39.9901C25.6665 38.7747 26.6684 37.7075 27.8332 37.7075C28.9981 37.7075 30 38.7747 30 39.9901C30 41.2553 28.9981 42.2982 27.8332 42.2982Z"
    fill="white" />
</svg>