<svg width="338" height="438" viewBox="0 0 338 438" fill="none" xmlns="http://www.w3.org/2000/svg">
<g clip-path="url(#clip0_31_2)">
<path d="M140.124 246.807C139.473 248.518 138.617 249.995 137.558 251.23C136.508 252.484 135.225 253.456 133.708 254.156C132.192 254.856 130.335 255.196 128.167 255.196C125.124 255.196 122.607 254.535 120.585 253.223C118.563 251.891 116.949 250.151 115.744 247.964C114.538 245.796 113.663 243.327 113.119 240.614C112.565 237.902 112.302 235.132 112.302 232.332C112.302 229.523 112.565 226.772 113.119 224.04C113.663 221.309 114.538 218.859 115.744 216.691C116.949 214.504 118.563 212.764 120.585 211.432C122.607 210.1 125.134 209.459 128.167 209.459C130.801 209.459 132.969 209.954 134.641 210.956C136.313 211.976 137.655 213.143 138.666 214.465C139.677 215.797 140.377 217.119 140.766 218.489C141.154 219.841 141.427 220.92 141.582 221.697H166.546C165.457 211.199 161.782 203.091 155.512 197.375C149.252 191.659 140.367 188.753 128.867 188.675C122.412 188.675 116.589 189.715 111.427 191.825C106.256 193.915 101.823 196.88 98.1291 200.69C94.4351 204.501 91.5966 209.079 89.6135 214.455C87.6304 219.811 86.6292 225.78 86.6292 232.303C86.6292 238.437 87.5721 244.192 89.4288 249.509C91.2952 254.846 94.0463 259.434 97.6625 263.332C101.279 267.231 105.682 270.302 110.893 272.558C116.103 274.794 122.091 275.941 128.867 275.941C134.933 275.941 140.338 274.92 145.082 272.908C149.816 270.876 153.801 268.222 157.029 264.917C160.256 261.612 162.706 257.889 164.378 253.777C166.05 249.674 166.896 245.494 166.896 241.305H141.689C141.31 243.249 140.795 245.106 140.124 246.807Z" fill="white"/>
<path d="M208.774 241.198H208.54L194.892 190.688H168.995L193.842 273.977H222.539L248.562 190.688H222.189L208.774 241.198Z" fill="white"/>
<path d="M274.983 0H0.345215V438H337.655V60.7661L274.983 0ZM308.492 408.827H29.5083V29.1631H259.955V75.4351H308.482L308.492 408.827Z" fill="white"/>
</g>
<defs>
<clipPath id="clip0_31_2">
<rect width="338" height="438" fill="white"/>
</clipPath>
</defs>
</svg>
